<?xml version="1.0" encoding="utf-8"?>
<svg viewBox="0 0 500 500" xmlns="http://www.w3.org/2000/svg">
  <path style="fill: rgb(216, 216, 216); stroke: rgb(0, 0, 0);" d="M 79.61 179.123 C 73.821 179.123 77.093 171.728 79.204 168.562 C 85.11 159.703 91.413 152.1 100.731 147.441 C 105.466 145.074 105.605 154.147 105.605 156.377 C 105.605 165.041 99.543 181.981 109.261 186.84 C 112.013 188.216 116.665 185.044 118.603 183.591 C 127.143 177.186 134.999 165.753 138.911 155.971 C 139.574 154.314 145.147 145.553 143.379 143.786 C 141.813 142.219 138.124 148.204 137.693 149.066 C 133.568 157.315 130.765 165.646 127.539 174.249 C 117.251 201.683 109.109 233.681 91.795 257.92 C 87.435 264.025 82.808 269.751 77.579 274.98 C 76.81 275.749 73.275 279.205 71.893 277.823 C 70.229 276.159 71.09 271.278 71.487 269.293 C 72.926 262.095 75.405 255.458 77.985 248.578 C 86.237 226.574 102.045 205.854 120.227 191.308 C 126.691 186.137 144.598 177.411 144.598 169.374"/>
  <path style="fill: rgb(216, 216, 216); stroke: rgb(0, 0, 0);" d="M 156.377 153.128 C 153.806 153.128 155.817 149.626 156.783 148.66 C 160.02 145.423 172.503 143.951 175.467 149.878 C 179.218 157.38 178.716 166.806 178.716 175.873 C 178.716 176.654 177.904 185.215 177.904 185.215 C 177.904 185.215 177.083 177.481 176.686 176.686 C 173.121 169.556 173.291 166.662 166.531 163.282 C 165.95 162.991 162.108 161.613 161.657 162.063 C 160.717 163.003 158.469 162.236 157.189 162.876 C 154.398 164.271 151.639 165.176 149.878 166.937 C 146.142 170.674 148.104 178.011 149.878 181.56 C 154.771 191.345 178.219 185.621 186.84 185.621"/>
  <path style="fill: rgb(216, 216, 216); stroke: rgb(0, 0, 0);" d="M 188.871 160.033 C 188.871 157.228 192.179 149.443 194.557 148.253 C 195.161 147.952 196.767 145.995 197.807 147.035 C 198.497 147.725 199.147 149.188 199.838 149.878 C 201.186 151.226 200.051 154.988 200.65 156.783 C 202.631 162.726 199.515 171.573 202.275 177.092 C 202.79 178.123 201.868 184.403 201.868 184.403 C 201.868 184.403 201.462 175.496 201.462 175.061 C 201.462 166.901 201.867 157.598 205.118 151.097 C 206.021 149.29 211.661 145.048 214.054 147.441 C 223.036 156.424 214.978 181.616 226.239 187.246 C 229.921 189.087 232.294 183.591 233.55 183.591"/>
  <path style="fill: rgb(216, 216, 216); stroke: rgb(0, 0, 0);" d="M 235.175 159.626 C 234.697 159.945 233.956 160.845 233.956 160.845 C 233.956 160.845 235.581 155.886 235.581 155.565 C 235.581 151.046 242.474 143.774 246.141 147.441 C 247.836 149.136 247.36 153.211 247.36 155.971 C 247.36 163.234 246.141 170.221 246.141 177.092 C 246.141 179.018 244.517 186.434 244.517 186.434 C 244.517 186.434 245.735 177.404 245.735 176.279 C 245.735 168.251 245.745 152.919 251.828 149.878 C 256.961 147.311 258.327 158.633 258.327 161.657 C 258.327 167.927 260.901 182.034 266.45 184.809 C 269.923 186.546 278.427 179.737 280.666 177.498"/>
  <path style="fill: rgb(216, 216, 216); stroke: rgb(0, 0, 0);" d="M 281.072 147.035 C 281.072 156.926 280.524 174.107 287.165 180.747 C 290.724 184.306 305.037 180.495 305.037 177.092"/>
  <path style="fill: rgb(216, 216, 216); stroke: rgb(0, 0, 0);" d="M 279.854 128.351 C 278.795 129.939 279.339 130.68 280.26 131.6 C 281.116 132.457 282.298 129.976 283.509 129.976"/>
  <path style="fill: rgb(216, 216, 216); stroke: rgb(0, 0, 0);" d="M 316.409 152.315 C 318.015 147.499 309.51 144.998 306.255 148.253 C 301.162 153.347 300.529 165.192 303.006 172.624 C 305.301 179.51 318.678 183.675 325.345 180.341 C 326.405 179.811 330.723 177.904 331.032 177.904"/>
  <path style="fill: rgb(216, 216, 216); stroke: rgb(0, 0, 0);" d="M 330.219 114.947 C 330.219 114.541 330.219 114.135 330.219 113.729 C 330.219 113.17 330.063 114.854 329.813 115.353 C 329.357 116.265 329.813 118.386 329.813 119.415 C 329.813 122.931 329.648 126.547 330.219 129.976 C 332.15 141.558 335.093 153.549 335.093 165.313 C 335.093 169.239 335.093 173.165 335.093 177.092 C 335.093 177.396 335.093 180.747 335.093 180.747 C 335.093 180.747 335.906 171.416 335.906 170.593 C 335.906 163.45 332.324 149.398 337.53 144.192 C 338.819 142.903 340.817 139.945 343.623 141.349 C 353.121 146.097 347.941 161.123 339.561 165.313 C 336.721 166.733 333.094 161.657 335.906 161.657 C 340.216 161.657 347.341 169.551 351.34 172.218 C 356.756 175.828 362.685 176.875 367.994 179.529 C 369.211 180.138 371.161 178.31 371.649 178.31"/>
</svg>