<?xml version="1.0" encoding="UTF-8"?>
<!-- Generator: Blender, SVG Export for Grease Pencil - v1.0 -->
<!DOCTYPE svg PUBLIC "-//W3C//DTD SVG 1.1//EN" "http://www.w3.org/Graphics/SVG/1.1/DTD/svg11.dtd">
<svg version="1.0" x="0px" y="0px" xmlns="http://www.w3.org/2000/svg" width="1011px" height="668px" viewBox="0 0 1011 668">
	<g id="blender_frame_1">
		<g id="blender_object_GPencil">
			<!--Layer: GP_Layer-->
			<g id="GP_Layer">
				<path fill-opacity="1" fill="#000000" stroke="none" d="M105.939453,24.330383L106.410706,27.424377L107.413452,29.807495L109.896545,35.425354L112.509583,40.539734L112.550049,40.637817L114.028137,43.785767L115.315369,46.446594L115.372742,46.582581L116.391663,49.034485L116.459167,49.235840L118.143494,54.549622L120.380005,59.261719L121.698853,61.651917L123.579529,64.629089L123.683899,64.819092L125.123657,67.503235L125.164612,67.588196L126.591919,70.472168L128.400024,72.782410L128.604004,73.097229L130.218018,75.770935L132.248962,78.898987L132.414185,79.201599L133.908630,82.114807L135.948853,84.634521L136.052490,84.776550L138.266907,87.844177L140.563782,90.458130L140.755859,90.707092L143.145874,93.988037L145.500488,96.940613L148.387939,99.567627L148.716858,99.915100L151.259949,102.911072L154.249939,105.470032L154.662537,105.886780L157.229126,108.883667L160.231262,111.445679L160.648560,111.862061L163.149475,114.768860L169.536255,119.588745L172.777649,121.688965L176.145691,123.351501L176.485840,123.540405L180.028992,125.756958L183.373718,127.724670L186.889771,129.237976L190.493164,130.601257L196.009705,132.320007L198.884583,133.024048L200.946350,133.230164L201.131958,133.256409L206.505554,134.143494L213.958191,134.368469L218.218384,134.276611L222.079834,133.573425L222.465332,133.522644L225.455688,133.286865L228.626892,132.835022L231.913940,132.238525L240.196838,130.024414L242.469238,129.195923L245.218811,128.093140L248.017578,126.785461L256.219238,122.292236L258.360046,120.806396L262.916321,117.317749L263.141968,117.156311L267.724915,114.196716L269.608826,112.696411L273.194824,109.397522L276.866760,105.856628L288.896484,94.242310L290.813416,92.383484L298.741638,82.268677L298.825256,82.161926L300.883789,79.695557L302.337463,77.837585L303.824463,75.613586L309.604919,66.550110L311.366211,62.967224L311.464539,62.780884L313.610474,59.164368L314.679382,56.670898L314.713623,56.593750L318.657959,48.246399L319.893005,44.874817L320.813293,41.945557L321.655640,38.744324L322.852112,33.638489L323.348816,30.869385L323.487183,23.522156L323.221436,20.413818L322.280762,17.929688L321.059082,15.320801L319.198486,13.457092L317.700684,13.003113L317.684021,13.985291L316.073181,14.729126L314.142334,15.850952L311.897827,17.608459L311.236633,18.983154L309.788452,21.218689L309.589722,21.472534L307.710388,23.917603L303.599243,31.927185L302.380615,34.977722L302.099121,35.528259L300.651978,38.123474L297.740540,44.056519L296.934631,46.173279L296.864075,46.336731L294.323975,52.265198L293.386963,54.772339L293.309021,54.958191L292.057861,57.817383L291.992920,57.959595L288.346802,65.763428L287.195190,68.463501L286.410583,70.639160L284.756104,75.857727L284.687012,76.060303L283.636169,78.976624L283.498047,79.323242L278.832886,90.050354L276.520935,95.778870L270.628845,111.864380L267.047180,122.401611L266.981628,122.583069L265.661377,126.096741L265.575439,126.310059L262.455566,133.727478L261.187988,137.430359L258.852417,144.855286L258.791016,145.036316L257.419189,148.965637L257.368225,149.102905L254.368042,157.080322L251.662964,165.310120L251.572815,165.558716L245.542786,181.517334L232.703735,216.564941L232.674316,216.641724L231.308716,220.215393L231.263306,220.328613L227.091064,230.609070L223.174988,240.985535L223.103577,241.165039L221.534363,244.991272L221.444458,245.198181L216.816162,255.414978L213.965332,262.093567L212.465698,266.064697L210.053406,272.961792L209.997986,273.114197L208.409424,277.321594L208.329163,277.524475L205.487915,284.375854L205.439514,284.489807L197.609070,302.439514L196.056335,306.222290L190.466797,321.611084L190.361328,321.881836L187.520813,328.757507L187.466858,328.883972L179.630127,346.850586L179.565308,346.993896L177.793457,350.815552L177.708923,350.990479L172.228210,361.962952L170.295593,366.087036L159.271057,391.191223L159.174866,391.400818L155.345825,399.328735L155.246399,399.527771L149.877258,409.770935L146.687805,416.103577L144.828430,419.917847L136.846252,437.164368L136.762451,437.340210L134.722961,441.394836L134.658630,441.521545L129.293274,451.713501L126.144775,457.966370L119.475586,471.997009L119.430237,472.091187L113.285889,484.571716L113.263672,484.616455L102.024780,507.058044L101.953979,507.195129L90.521667,528.675720L90.458374,528.791931L81.797791,544.179443L69.445923,566.799500L69.396362,566.890076L65.617920,573.532288L62.027161,580.141907L61.932190,580.313721L58.271118,586.559998L58.224731,586.639404L47.595398,604.161560L43.518555,611.730652L43.424438,611.902527L42.009094,614.317200L41.837708,614.598816L38.790955,619.190369L35.837097,623.894958L35.721558,624.087219L31.963074,629.816101L27.201843,637.767700L27.103088,637.937561L23.411194,643.535706L23.074219,644.019958L20.965454,646.477356L18.136902,650.698242L17.807007,651.173706L15.725037,653.450256L12.601990,656.645935L12.214050,657.175232L11.720398,657.607666L11.144653,657.922546L10.514221,658.104858L9.859314,658.145935L9.211121,658.043701L8.600525,657.803162L8.056763,657.435730L7.605835,656.958984L7.269104,656.395691L7.062866,655.772766L6.996765,655.119812L7.074158,654.468140L7.291138,653.848816L11.300293,651.761902L11.300293,651.761902L11.329590,651.713440L11.367798,651.671692L11.413452,651.638245L11.464600,651.614319L11.519592,651.600830L11.576050,651.598328L11.632019,651.606873L11.685181,651.626160L11.733582,651.655518L11.775269,651.693665L11.808777,651.739319L11.832703,651.790527L11.846191,651.845520L11.848694,651.901978L11.840149,651.957886L11.820801,652.011047L12.708984,656.442810L8.868591,648.780701L9.218994,648.266235L10.973083,645.728394L13.310547,641.185730L13.652893,640.690430L15.559814,638.073425L18.442383,632.787415L22.703186,624.504089L22.850952,624.254333L26.406311,618.358765L29.065796,613.255676L29.228027,612.989685L32.176819,608.334656L33.361511,606.167786L37.264587,598.556213L37.413452,598.290100L47.772156,580.483276L51.244934,574.295349L54.702209,567.655090L54.762024,567.545227L58.436890,560.832703L70.459595,538.035156L70.509827,537.943298L79.044800,522.501526L90.383972,501.133606L101.602844,478.796143L107.706421,466.381531L114.314392,452.295471L114.381226,452.158142L117.562439,445.777039L117.610596,445.682739L122.918762,435.401184L124.837402,431.445251L132.657593,414.210022L132.707214,414.104187L134.566711,410.162537L134.617249,410.059387L137.800659,403.665100L137.848328,403.571655L143.127563,393.348022L146.812439,385.602234L157.833984,360.422974L157.909668,360.256409L159.926392,355.986084L159.999817,355.834839L165.509460,344.876770L167.211670,341.237061L175.017151,323.503357L177.788940,316.830933L183.461060,301.336548L183.559631,301.082153L185.170532,297.169617L185.225952,297.038818L193.028442,279.144409L195.843750,272.349182L197.349121,268.343506L199.764771,261.433594L199.824890,261.268677L201.429932,257.040955L201.533569,256.783691L204.417725,250.035339L204.479980,249.894043L209.164062,239.617859L210.672852,236.010742L214.620789,225.759705L214.685181,225.597229L218.992004,215.277649L220.362732,211.836914L233.776794,177.061523L233.797974,177.005981L240.040344,161.239319L242.883911,153.064270L242.968750,152.829468L246.132751,144.781189L247.508423,141.008606L249.921265,133.642517L249.971802,133.491943L251.412598,129.444702L251.550964,129.087952L254.731750,121.696472L255.992676,118.406311L259.587708,108.008789L259.631348,107.886047L265.627686,91.670776L265.694458,91.497864L268.080933,85.615173L268.141663,85.470764L272.864258,74.683289L273.784302,72.116211L275.474060,66.870667L275.555664,66.633789L276.470337,64.181213L276.583313,63.898071L277.829651,61.015076L277.914185,60.827698L281.635254,53.059387L282.833618,50.347656L283.888245,47.835388L283.985779,47.605530L286.745422,41.776001L287.769714,39.387512L287.987244,38.922974L291.341003,32.940430L291.462463,32.722168L293.025879,30.195374L294.386719,27.183777L294.679688,26.614807L300.099304,18.501465L300.540588,17.881287L302.629700,15.612793L304.223145,13.640076L304.341431,13.484863L306.178772,11.411011L307.130432,10.532776L310.109802,8.708740L310.674622,8.389893L313.270874,7.363220L313.798767,7.162354L316.219177,6.622681L316.925232,6.482239L319.257141,6.456482L320.049072,6.464905L320.819519,6.648071L321.530457,6.996948L323.560059,8.586243L324.359314,9.301941L326.105469,11.917786L326.600342,12.802612L327.503845,16.163696L327.557556,16.331238L328.179138,19.317444L328.274780,19.919495L328.254272,23.435608L328.254150,23.615112L327.819092,31.207886L327.781616,31.538635L327.191345,34.511902L327.170044,34.611694L325.924255,39.786560L325.910889,39.839783L325.043701,43.112183L325.017334,43.203857L324.082642,46.234985L324.048218,46.336853L322.766296,49.848938L322.694214,50.022705L318.819946,58.460022L317.741089,61.067749L317.605713,61.337646L315.465698,65.010925L313.816956,68.681885L313.686279,68.922607L308.041748,78.261353L308.014954,78.303589L306.523010,80.669495L306.411499,80.827637L304.884827,82.874573L304.824097,82.950989L302.833557,85.385498L295.401184,95.997986L295.180298,96.261902L293.259460,98.477417L293.196838,98.541870L281.578064,110.579651L281.565552,110.592041L277.948242,114.265137L277.882935,114.327942L274.141052,117.918762L273.938354,118.094727L271.818787,119.824951L271.553650,120.017761L267.137085,122.977600L262.612000,126.548096L262.479858,126.645874L260.066589,128.397034L259.748474,128.597534L251.416199,133.368347L251.194275,133.482910L248.230286,134.914734L248.044922,134.996521L245.171936,136.198853L245.030090,136.253601L242.462708,137.195251L242.161316,137.290527L233.593750,139.645325L233.289612,139.714355L229.859619,140.356873L229.712769,140.380920L226.306946,140.883118L226.068970,140.909790L223.079407,141.155090L219.306763,141.876038L218.703491,141.938171L214.037354,142.056946L213.832825,142.056274L206.017639,141.829041L205.501282,141.778748L199.872925,140.839050L197.512695,140.567383L197.028198,140.479309L193.939514,139.705200L193.723328,139.644592L188.099854,137.885864L187.884277,137.811523L184.098450,136.376160L183.946350,136.314758L180.127930,134.684998L179.697205,134.467468L176.095276,132.358704L176.007019,132.305359L172.578735,130.175598L169.176758,128.514771L168.786560,128.294128L165.229431,126.011414L165.000427,125.851807L158.151367,120.716675L157.542725,120.146851L154.960571,117.146729L151.958069,114.567322L151.525818,114.133423L148.973755,111.106995L146.004089,108.499390L145.570496,108.057312L143.036438,104.961609L140.163330,102.223083L139.753174,101.773621L137.248840,98.446350L137.150635,98.313477L134.908203,95.019958L132.711914,92.304138L132.505188,92.033569L130.371338,88.809814L128.299744,85.978821L127.930908,85.379211L126.512085,82.228577L124.659668,79.053711L124.599243,78.951416L123.137512,76.191467L121.489746,73.844849L121.177185,73.316162L119.794556,70.123657L118.573608,67.503845L116.842407,64.456543L116.753113,64.296021L115.497131,61.674438L115.424133,61.520569L113.382690,56.444092L113.267456,56.123901L111.864868,50.662659L111.041931,48.328491L109.861633,45.617737L109.803955,45.480713L108.796875,42.129883L106.753967,36.756714L106.710388,36.648743L104.967651,30.673340L104.952026,30.627808L104.320435,27.951538L104.269836,27.676941L104.408813,24.390991L104.407837,24.352844L105.077209,18.286682L105.077209,18.286682L105.078735,18.270386L105.083435,18.254761L105.091125,18.240295L105.101501,18.227722L105.114075,18.217285L105.128540,18.209534L105.144165,18.204834L105.160339,18.203125L105.176697,18.204712L105.192322,18.209412L105.206665,18.217102L105.219360,18.227417L105.229736,18.239990L105.237488,18.254395L105.242249,18.270081L105.243896,18.286316L105.932495,24.269897z" />
				<path fill-opacity="1" fill="#000000" stroke="none" d="M288.138977,159.411255L288.105957,159.392578L285.888062,158.268005L285.764221,158.166382L285.669800,158.037109L284.384216,156.152588L284.308228,155.964844L284.278748,155.764526L284.297546,155.562866L284.545227,153.327454L284.682495,152.987000L287.112610,148.275024L287.508362,147.850220L291.585876,144.497681L293.973206,142.451538L294.327942,142.230591L297.394958,140.599182L300.629944,138.531555L300.908508,138.391113L304.169067,136.911926L309.771667,134.004578L310.088318,133.878784L315.264343,132.133423L315.499512,132.069824L318.536438,131.358337L318.957336,131.300171L323.140442,131.026917L323.244019,131.023010L332.181274,130.784912L332.349792,130.786926L336.088928,130.906921L336.833984,131.041138L339.936401,132.003418L340.437927,132.221741L343.796326,134.029785L344.279541,134.366882L346.980103,136.620056L347.345581,136.996826L349.940186,140.102600L350.180969,140.446106L352.353577,143.939392L352.741577,144.965027L353.691711,149.517090L353.733154,149.827820L354.159790,154.526978L354.169861,154.878906L354.120972,157.922791L354.109070,158.128174L353.841736,161.455261L353.807678,161.715942L353.295044,164.910156L353.218079,165.250122L352.444092,168.103760L352.171936,170.986633L352.054199,171.554260L350.061829,178.411865L349.966858,178.686523L347.534546,185.045898L347.360046,185.421753L345.633606,188.721558L344.404968,191.953857L344.333984,192.119812L343.068665,195.038757L341.979309,198.122742L341.837219,198.447815L340.534180,201.271851L340.412598,201.498108L338.615662,204.777954L336.214722,209.892395L335.150818,212.419556L334.160034,215.298706L334.042603,215.569580L331.849792,220.789978L331.768799,220.952332L330.530090,223.613342L330.381592,223.876465L328.612915,227.054932L327.284241,229.700012L327.070007,230.047974L325.022217,233.320740L324.777527,233.654602L322.801270,236.326477L320.531555,240.770142L320.415039,240.961975L319.056702,243.265076L317.674622,244.751709L315.639038,246.344666L314.712891,246.904053L312.510437,247.988892L310.810730,248.497314L309.037170,248.456360L306.721741,248.016602L305.516052,247.655090L303.342773,246.666992L302.179443,245.996521L301.209106,245.068481L299.729004,243.136658L299.359253,242.630249L298.058655,240.444702L297.661499,239.712585L296.653137,237.206665L296.229614,235.684387L295.940125,232.480225L295.911316,232.170105L295.796509,228.783325L295.787476,228.561279L295.807678,225.043640L295.810120,224.760193L296.018616,221.215576L296.153625,220.235779L297.044434,216.825439L297.171143,216.390137L299.388245,210.236206L299.498779,209.944397L300.699585,207.170959L301.839600,204.135071L301.937988,203.887512L303.154297,201.128845L305.291931,195.351624L305.506653,192.999634L305.651794,192.367493L306.341675,189.573547L305.675415,188.410828L305.657349,190.984863L303.239075,192.138123L299.331970,193.744751L293.596252,196.070129L291.892212,197.354248L291.375305,197.680237L288.555786,199.177917L286.662415,200.503357L284.420410,202.280457L280.790161,205.473755L279.094849,207.111450L276.578064,210.815125L276.347412,211.145630L274.359009,213.620422L273.476807,215.710510L273.410278,215.852173L272.025513,218.549988L269.708313,224.804077L266.093140,235.449829L265.114380,238.859192L264.748474,241.821716L264.660400,242.275146L263.794678,245.871155L263.523193,248.952820L263.345581,249.807129L262.434143,252.850098L262.507996,254.766724L262.408936,257.922729L262.568115,259.934326L262.937744,262.260010L263.605164,264.860718L264.621399,267.885925L265.502075,269.522644L266.827393,271.311768L268.513367,272.927490L270.964539,274.278870L273.102295,275.410889L274.650452,275.952209L276.842712,276.525818L279.252014,277.089966L281.573425,277.529541L283.972351,277.693787L286.755066,277.743347L293.821228,277.628357L296.267151,277.439392L302.400330,276.602783L302.756836,276.568848L306.421387,276.302063L313.485779,274.312256L316.461853,273.325928L319.597656,272.118652L322.271057,270.600952L322.806580,270.348328L326.363708,268.787659L336.131775,262.627014L336.833557,262.248901L340.437866,260.561462L343.294250,258.785706L346.622437,256.704590L349.059021,254.888367L349.355957,254.660522L352.759583,252.465454L358.012207,248.624023L358.251648,248.420349L361.494019,246.362427L362.895386,245.165100L363.247864,244.765991L368.712036,240.704163L371.457031,238.613098L374.060364,236.150024L374.176392,236.008606L376.691162,233.915894L381.573425,228.822266L383.799194,226.165894L385.893921,222.260498L385.893921,222.260498L385.900269,222.247986L385.908936,222.236938L385.919556,222.227844L385.931763,222.221008L385.945129,222.216614L385.959045,222.214966L385.973022,222.216064L385.986511,222.219849L385.999023,222.226196L386.010071,222.234924L386.019165,222.245483L386.026001,222.257751L386.030396,222.271057L386.031982,222.284973L386.030945,222.299011L386.027161,222.312439L384.909485,226.638367L384.878906,226.704468L383.848877,230.108521L383.791565,230.205139L380.955200,236.917786L380.739319,237.203064L378.954773,240.047974L377.087036,243.396606L376.865112,243.657837L374.905090,246.612305L374.838806,246.681702L370.912903,252.244446L369.730164,254.547607L368.837036,255.446411L366.145203,258.185486L361.483704,263.272644L360.934998,263.715576L357.796082,266.275024L355.276550,268.528687L354.699707,268.950867L351.311707,271.302673L351.144104,271.410034L347.583191,273.683044L346.825928,274.095398L343.232422,275.805420L333.099304,281.918518L332.133179,282.414124L328.536926,283.882202L325.497925,285.441345L324.641235,285.820801L321.154846,287.059509L320.833069,287.169434L317.452881,288.201782L317.068970,288.311401L308.698242,290.392944L307.421265,290.599304L303.755249,290.845093L297.481262,291.528381L297.003235,291.569580L294.062256,291.678284L293.571899,291.686707L286.190918,291.323181L285.867859,291.309753L282.658813,290.982300L282.217102,290.938660L279.216614,290.419189L278.583252,290.303406L275.864807,289.579407L275.428833,289.461182L272.740356,288.462830L272.366638,288.334412L269.924194,287.168579L269.514954,286.996094L267.425598,285.894897L266.785400,285.548218L264.249268,283.811584L263.710510,283.432129L260.918213,280.766052L260.135864,280.007996L258.289124,277.529480L257.838867,276.911133L256.434265,274.397461L256.122498,273.817627L255.118530,271.457703L254.868530,270.792542L253.911377,267.270386L253.800476,266.824097L253.337524,263.839294L253.282837,263.507019L252.993652,260.826111L252.961914,260.485352L252.843933,258.026123L252.839172,257.581116L252.967346,254.352905L252.970520,254.279907L253.155090,251.216858L253.357361,250.067627L254.307739,247.036743L254.582397,244.223938L254.688660,243.629944L255.590820,240.042908L256.030823,236.900513L256.168152,236.263672L257.216736,232.670654L257.275208,232.483704L260.846313,221.765564L260.882263,221.662598L263.278015,214.834900L263.478271,214.363464L264.760803,211.615540L266.010986,208.657776L266.575989,207.707336L268.427185,205.128296L270.941406,200.763367L271.532715,200.003845L273.297424,197.942810L273.550049,197.691528L277.265503,194.032776L277.552307,193.783997L279.982483,191.774414L280.214783,191.596680L282.574646,189.795105L283.129639,189.441406L285.886475,187.831360L288.109070,186.110413L289.242676,185.485901L295.197388,183.002747L295.691284,182.825439L301.597656,181.141296L303.269165,180.891785L308.567078,181.215271L310.069580,181.436279L311.448364,182.073425L313.544006,183.683167L314.435303,184.418274L315.138489,185.334900L315.617676,186.386169L315.848267,187.518250L315.904846,190.564819L315.713379,192.411865L314.737122,195.119080L314.304626,197.712402L314.070496,198.606384L311.846863,204.609741L311.756958,204.834351L310.587952,207.613342L309.533569,210.622375L309.456421,210.819702L308.332581,213.625244L306.426880,219.556030L305.790649,222.561890L305.871643,225.132385L306.030396,228.363098L306.331238,231.515564L306.798157,234.384277L307.569031,235.284790L308.631104,236.635559L309.868530,237.956604L309.952942,237.240906L311.069275,237.282959L309.820068,236.710571L311.005981,235.780029L311.133484,235.059753L314.086121,230.376404L314.524048,229.735107L316.685608,227.210815L318.702209,224.415649L320.132690,222.104309L320.216980,221.959961L322.219788,218.923523L323.551514,216.652100L326.127075,211.814026L327.347595,209.031250L327.463074,208.765381L328.811462,206.211609L328.876526,206.080688L331.762268,201.007385L331.852417,200.843567L333.815369,197.660278L335.148743,195.137634L336.325073,192.213806L336.416199,191.996216L337.796753,189.129944L339.129639,185.913330L339.302124,185.543579L341.105774,182.289001L343.537048,176.308594L345.511902,169.901245L345.910339,166.800537L346.012817,166.286865L346.846436,163.450012L347.351440,160.607666L347.648193,157.546936L347.747498,154.709961L347.411560,150.513489L346.807800,146.623962L345.136475,143.724976L342.933899,140.911438L340.730652,138.938538L337.920227,137.319580L335.469360,136.477539L332.199463,136.299011L323.395752,136.390991L319.473328,136.581970L316.746704,137.145081L311.801453,138.652039L306.121338,141.132080L306.017883,141.178467L302.768494,142.426514L299.466125,144.253723L299.305664,144.340027L296.229797,145.679932L293.805603,147.394470L293.749634,147.436523L289.494202,150.096558L286.615784,153.964355L286.026672,155.610046L286.701782,157.280640L288.523132,158.692444L292.380432,161.046997L292.380432,161.046997L292.387756,161.051636L292.394043,161.057678L292.399048,161.064697L292.402527,161.072693L292.404419,161.081116L292.404663,161.089844L292.403137,161.098328L292.400024,161.106445L292.395386,161.113770L292.389404,161.120056L292.382263,161.125000L292.374329,161.128540L292.365906,161.130432L292.357239,161.130615L292.348694,161.129150L292.340637,161.125977L288.181030,159.428345z" />
				<path fill-opacity="1" fill="#000000" stroke="none" d="M391.718933,144.123962L391.755127,143.803223L391.861694,143.498535L392.033447,143.225220L392.261719,142.997009L392.535034,142.825195L392.839661,142.718628L393.160400,142.682434L393.481201,142.718506L393.785889,142.825134L394.059204,142.996826L394.287476,143.225037L394.459229,143.498352L394.565918,143.802979L394.602051,144.123779L398.503845,243.186218L398.669739,246.554871L399.225708,248.690491L399.346558,249.624207L399.619629,256.599487L399.623840,256.776367L399.618896,260.282593L399.612366,260.587158L399.388489,263.300964L399.211426,264.411865L398.800537,265.459045L398.174744,266.393860L397.363220,267.172974L396.403687,267.760010L395.340576,268.127869L394.223328,268.259338L393.103882,268.148438L392.034241,267.800232L391.063965,267.231018L390.238220,266.467041L389.658447,265.605103L388.874390,264.392578L388.462280,263.008667L388.279541,260.883057L387.790588,259.093933L387.573120,257.899353L387.496216,254.034119L387.324036,250.647949L386.785889,247.480103L386.705872,246.813721L386.585571,239.591553L386.581909,239.465759L386.614807,235.706665L386.517334,231.533325L385.965942,228.132080L385.908997,227.581665L385.824097,223.182495L385.821838,223.014465L385.911621,219.217957L385.965698,218.602234L386.650452,214.852112L387.108948,207.193970L387.170410,206.685913L387.886292,203.104065L388.232300,199.559998L388.307129,199.082581L389.142212,195.446899L389.453796,192.257263L389.566528,191.656006L390.560364,188.061157L390.587219,187.968323L391.630676,184.520630L391.726685,184.244751L392.866943,181.310852L395.141052,174.539185L395.201904,174.374939L396.521362,170.957275L396.864929,170.293396L398.711670,167.376770L399.921082,164.566772L400.355103,163.848633L402.322693,161.187927L403.614868,158.933228L404.063049,158.335815L408.419434,153.384094L408.525391,153.271851L410.839844,150.837830L410.956970,150.723145L413.295410,148.451599L413.876465,147.994202L416.239563,146.393188L416.416870,146.283630L418.787231,144.841553L418.973999,144.738525L423.734558,142.144775L424.104736,141.973877L426.647156,140.863159L427.843018,140.561462L431.063538,140.121460L431.529053,140.094971L434.771545,139.973328L436.271667,140.213013L439.154724,141.049316L440.070679,141.467529L443.619202,143.296387L444.849976,144.322388L447.557068,147.288696L448.170410,148.166382L449.385803,150.204041L449.600647,150.640076L450.757690,153.036316L450.920471,153.458374L451.929932,156.072632L451.998352,156.290710L453.061462,159.524231L453.256958,160.550659L454.144165,167.490479L454.910950,170.618286L455.017090,171.506287L455.652832,179.964539L455.892761,182.468750L456.825256,187.915588L456.877808,188.517700L457.647339,198.939392L458.355286,201.699585L458.462891,202.658875L458.768555,206.917114L459.162903,210.422607L459.875793,213.325623L459.988464,214.203247L460.629639,221.451599L461.278870,224.079163L461.390076,224.823425L461.782227,228.411194L462.539246,230.536804L465.820557,239.758179L466.805786,241.929382L469.114014,246.755798L472.668640,253.855835L473.735779,255.559692L474.419434,255.774780L475.197388,256.603638L477.412354,259.346863L478.078613,259.300964L480.392090,260.298218L489.598877,263.908386L491.329834,264.014893L492.999878,264.069214L501.480225,264.679871L503.105957,264.561157L509.502930,262.947449L511.456543,262.114258L515.758545,259.690796L515.847900,259.623962L517.956421,258.568115L519.704224,256.860474L519.825562,256.722412L522.216919,254.707886L524.775879,252.612854L526.941528,250.199341L526.975464,250.156555L529.888062,247.419678L529.888062,247.419678L529.902588,247.406799L529.919189,247.397034L529.937378,247.390686L529.956543,247.388123L529.975830,247.389221L529.994507,247.394043L530.011841,247.402466L530.027222,247.414124L530.040161,247.428589L530.049927,247.445251L530.056274,247.463440L530.058960,247.482605L530.057739,247.501892L530.052856,247.520508L530.044556,247.537903L530.032837,247.553284L527.554199,250.653625L526.062012,253.562195L525.995361,253.646484L524.104126,256.457031L524.066528,256.496887L522.126343,258.866272L520.781738,261.124268L520.383667,261.504883L518.510742,263.276855L514.944336,267.070496L514.677734,267.258057L512.843018,268.811157L512.598267,268.950562L507.116821,273.493713L506.633911,273.710632L504.082764,275.402466L502.682007,275.742493L493.924438,278.252319L493.312622,278.292236L490.754517,278.494690L489.860107,278.459167L486.240234,278.266113L484.386719,277.832520L474.525513,274.328491L473.993774,274.106201L470.787903,272.620789L469.895691,272.132446L467.400146,270.540100L465.570068,268.903076L463.356689,266.158569L462.092834,265.112671L460.732788,263.455139L459.364014,261.197449L459.059387,260.645447L455.456482,253.401917L455.390869,253.267151L453.009583,248.218262L452.913208,248.006897L451.732361,245.283325L451.518799,244.738770L448.203979,235.059082L448.070435,234.635620L447.123901,231.183472L446.876221,229.873474L446.563721,226.277893L445.999756,223.404541L445.870361,222.435364L445.543762,215.166138L445.052368,212.300354L444.945984,211.501038L444.784790,207.737061L444.770752,207.497314L444.722961,203.228394L444.269958,200.428772L444.163940,199.476562L444.101990,189.026672L443.539856,183.730713L443.498718,183.328064L443.377380,180.652771L443.368286,180.490540L443.278687,172.008911L442.761230,169.144653L442.677002,168.565247L442.259277,161.581482L441.618469,159.308594L440.907227,156.835022L440.102966,154.777893L439.239746,153.100220L437.295898,150.881470L435.214417,149.678955L433.323914,149.031555L431.580261,149.186218L428.805969,149.421753L427.405334,150.097290L422.915588,152.328674L420.682312,153.582886L418.442505,154.991516L416.615906,156.732239L414.344360,158.978821L409.935242,163.673950L408.770386,165.607666L408.542114,165.940735L406.491577,168.537964L405.366089,171.062866L405.103760,171.536438L403.184998,174.406250L402.141846,177.133362L399.779968,183.858032L399.724854,184.007507L398.561462,186.932251L397.605774,190.101624L396.645874,193.605652L396.399475,196.627930L396.329285,197.059448L395.583984,200.467163L395.294617,203.957458L395.243774,204.320312L394.605042,207.842529L394.278381,215.692017L394.230103,216.130798L393.646790,219.898010L393.727966,223.079712L393.942261,227.306396L394.638062,230.659668L394.694885,231.187317L394.956848,235.469299L394.960083,235.584778L395.102722,239.341309L395.615967,246.420227L396.363892,249.370850L396.433472,249.863464L396.857971,253.378662L396.868469,253.528381L397.207947,257.379517L397.915710,258.660339L398.092896,259.428589L398.534485,261.515930L398.112183,259.612488L389.010437,260.055969L388.947571,256.854797L388.659546,250.057312L388.111755,247.937927L387.991821,247.021973L387.847717,243.419922L387.842590,243.187622L393.160522,145.565552L393.290100,149.086487L393.290100,149.086487L393.287537,149.111694L393.280151,149.136047L393.268188,149.158447L393.252136,149.178101L393.232483,149.194214L393.210083,149.206177L393.185730,149.213501L393.160522,149.216064L393.135254,149.213501L393.110962,149.206177L393.088562,149.194214L393.068909,149.178101L393.052795,149.158447L393.040833,149.136047L393.033447,149.111694L393.030945,149.086487L391.732056,144.173584z" />
				<path fill-opacity="1" fill="#000000" stroke="none" d="M527.904663,143.571899L526.541382,142.529602L530.398438,143.822693L531.048340,147.109131L531.461304,158.034851L531.695557,160.246338L532.545654,165.510254L532.580688,165.915588L533.124512,177.092102L533.781982,180.222473L533.848999,180.838074L534.259888,189.281494L534.262451,189.386597L534.336792,193.363708L534.527466,195.802063L535.369629,201.378784L535.405029,201.793396L535.601807,205.179016L535.604980,205.304993L535.963257,215.921997L535.963623,215.976562L536.217773,253.394348L527.774658,178.996277L527.776489,178.882935L527.873169,175.196533L527.958252,174.544861L528.606689,171.624390L529.709106,165.117737L529.937256,161.906006L530.102173,161.108154L530.804565,158.825684L532.047852,153.739258L532.194214,153.321228L534.011475,148.659363L535.552368,143.739319L535.939453,142.934692L537.727661,139.782288L538.061523,139.315674L540.089355,136.415039L540.337158,136.136841L542.687256,133.525208L543.850342,132.644958L545.844604,131.444580L546.203613,131.270325L548.584351,129.966370L549.425781,129.684204L552.089966,128.814392L553.225708,128.667786L554.366455,128.767944L559.583984,129.471619L559.949341,129.556702L562.679199,130.063416L563.380249,130.299866L565.944824,131.137451L566.219360,131.257874L571.226562,133.251587L571.621338,133.453613L574.089966,134.688049L574.931030,135.245605L577.395386,137.045471L579.317627,138.142334L580.374634,138.979004L582.662842,141.110107L583.484375,142.073975L587.363892,147.433960L587.562988,147.734314L589.184570,150.257385L590.893188,152.418152L591.737793,153.872620L595.799072,163.238525L595.962524,163.658142L598.398926,170.524719L598.511963,170.874451L599.560669,174.429626L599.768921,175.374390L600.297241,178.937744L602.013428,184.277771L602.252930,185.361206L602.732300,188.800537L603.453979,191.575562L603.631958,192.681763L604.207397,199.649719L604.765503,201.435730L604.965698,202.843323L605.621704,216.889832L606.203857,219.435852L606.322998,220.478149L606.636108,227.676208L606.641846,227.921936L606.713257,242.031006L606.850586,244.285217L607.162842,246.597473L608.011719,250.870178L608.542358,253.276123L609.375000,256.190796L610.404663,259.036560L611.458984,260.152832L613.187378,261.903931L614.380981,262.013855L616.132568,262.104492L619.255615,262.328613L622.335815,262.264832L630.417358,259.903442L632.687500,259.264954L634.318481,258.556885L636.316406,257.593628L637.875977,256.470520L638.604126,255.989136L641.099243,254.823425L643.152832,253.802368L644.015869,253.099731L644.975098,252.256042L647.459839,251.058899L652.149170,247.859741L654.594971,246.010132L656.421387,244.285889L656.660400,243.995605L664.185913,237.767090L666.082520,235.513794L666.112915,235.469971L668.569946,232.550110L668.603027,232.506287L671.256226,229.945496L671.256226,229.945496L671.352173,229.846313L671.465576,229.767822L671.592041,229.712830L671.726929,229.683594L671.864868,229.681274L672.000610,229.705933L672.128906,229.756531L672.244995,229.831238L672.344116,229.927124L672.422852,230.040588L672.477783,230.167114L672.506836,230.302002L672.509277,230.439880L672.484619,230.575623L672.433838,230.703979L672.359253,230.820007L670.488159,233.965820L668.528687,237.177124L667.110962,239.893799L666.929810,240.122803L661.150269,248.177979L660.071411,250.551453L659.776001,250.907837L657.927490,253.608582L657.780640,253.756226L653.837891,258.887573L653.219727,259.391052L651.221924,261.292786L650.722656,262.611267L649.588501,263.585938L647.504517,265.302795L647.156494,265.515381L644.874023,267.056274L643.291260,268.529785L642.358643,269.124512L639.996094,270.467590L639.545166,270.682556L637.157471,271.765137L636.361694,272.049683L633.937866,272.762451L633.775513,272.806885L624.023315,275.302612L622.373291,275.516235L618.728760,275.495728L618.164673,275.473083L614.456421,275.156921L613.869629,275.081604L610.503296,274.499390L608.890137,273.998413L605.715942,272.579468L603.762085,271.212036L601.366577,268.871521L600.784790,268.198059L598.703125,265.570496L597.804688,263.961853L596.449219,260.748047L596.295654,260.312622L595.180420,257.082153L595.074585,256.710571L594.314087,254.075684L594.250488,253.804260L593.149414,249.030579L593.056519,248.495667L592.659058,245.674194L592.608765,245.160278L592.433838,242.510803L592.420532,242.114014L592.328735,228.128052L592.068481,221.050903L591.526489,218.497192L591.407593,217.454834L590.946777,203.400513L590.442261,201.883667L590.258911,200.754456L589.730347,193.782776L589.063721,191.413330L588.930176,190.715271L588.455322,187.275269L586.745361,182.002380L586.515381,180.985046L585.984985,177.421997L585.147583,174.810608L582.923462,168.497620L579.047974,159.297241L577.883179,158.049866L577.534790,157.544739L575.975464,154.982666L572.455322,149.810669L571.079834,148.549561L569.790527,147.792480L569.279907,147.431091L566.937622,145.475037L565.427979,144.585938L561.085693,142.217346L558.944458,141.136597L557.028564,140.445557L552.301880,139.192627L551.810059,139.584717L550.075195,140.157959L548.332764,140.984741L546.966309,142.542603L544.764038,144.818298L543.069458,147.355225L541.509277,151.436707L541.434570,151.630859L539.458374,156.099304L537.838867,160.985229L537.799683,161.112427L537.018311,163.369080L536.807861,166.124817L536.758057,166.475708L535.343262,173.046875L535.317993,173.166809L534.626465,176.077271L534.563110,179.053650L536.217773,253.396301L536.090820,254.521484L535.716797,255.590271L535.114380,256.549011L534.313599,257.349609L533.354858,257.952087L532.286133,258.326111L531.161011,258.452942L530.035767,258.326294L528.966797,257.952454L528.007935,257.350159L527.207275,256.549622L526.604492,255.591003L526.230347,254.522339L526.103271,253.397156L526.336548,216.006592L526.448364,205.411499L526.382935,202.146851L525.734985,196.668213L525.706177,196.376343L525.557983,193.701050L525.548828,193.467346L525.529541,189.489563L525.336792,181.143372L524.754272,178.007690L524.687866,177.400391L524.421997,166.417480L523.803589,161.038147L523.775024,160.752747L523.697510,158.248779L523.689697,157.966858L524.294556,146.966858L524.300049,146.800659L525.331543,143.244324L525.363770,142.962036L526.215088,141.035583L526.335205,140.613281L526.542969,140.226501L526.828735,139.893066L527.179199,139.628662L527.578125,139.445312L528.007080,139.351624L528.446167,139.351929L528.874878,139.446228L529.273682,139.630127L529.623779,139.895081L529.909058,140.228882L530.440918,141.960388L530.542358,142.132507L532.510254,149.011169L532.510254,149.011169L532.522095,149.041809L532.527710,149.074158L532.526855,149.106995L532.519653,149.139099L532.506348,149.169189L532.487427,149.196045L532.463623,149.218689L532.435913,149.236267L532.405273,149.248108L532.372803,149.253723L532.339966,149.252930L532.307861,149.245667L532.277710,149.232422L532.250977,149.213440L532.228271,149.189636L532.210693,149.161865L527.947754,143.627747z" />
				<path fill-opacity="1" fill="#000000" stroke="none" d="M678.843506,149.280945L678.825195,149.170288L678.836792,149.058655L678.827515,147.578003L677.550781,146.713989L681.355347,148.081360L681.344849,148.227051L681.792603,150.948669L681.740845,151.281311L682.170288,155.088989L682.134033,158.812927L682.026855,159.522949L681.895508,162.428162L681.639771,164.955750L681.734985,167.498718L681.757568,176.246765L681.928589,191.901917L682.102051,194.325867L683.021240,200.322632L683.056519,200.704285L683.367920,205.077148L684.718140,209.764221L685.548828,212.593933L686.231445,214.285767L686.327637,214.569214L688.052002,219.553284L689.889282,223.666992L690.012329,223.984009L691.860718,228.889038L693.149170,230.469971L694.371338,231.353943L694.936646,231.972229L697.262695,234.817932L698.254761,235.116272L700.416626,236.120117L702.322144,235.891052L704.124512,235.828674L706.475098,235.633850L708.655762,235.272400L710.215698,234.733643L712.480835,233.949097L714.812012,233.109314L717.081665,232.216248L719.018799,231.132874L719.434570,230.841064L722.090698,229.731995L724.309814,228.498596L724.598755,228.276978L727.150635,227.153931L728.543091,226.002319L728.841919,225.678040L731.401123,223.941345L731.553833,223.809265L733.695312,222.652893L737.507080,219.024414L737.704346,218.812805L740.249146,217.437805L742.222168,214.999023L742.222168,214.999023L742.241943,214.973694L742.266235,214.952759L742.294189,214.936951L742.324585,214.926880L742.356445,214.922913L742.388306,214.925232L742.419312,214.933838L742.447998,214.948242L742.473145,214.967957L742.494263,214.992188L742.510010,215.020142L742.520020,215.050598L742.524048,215.082458L742.521729,215.114380L742.513184,215.145325L742.498779,215.173950L741.093994,218.073486L740.982178,218.199646L739.175415,220.381836L736.941406,225.310730L736.536865,225.739502L734.778687,227.692200L732.954102,230.064758L731.934692,232.241699L731.190552,232.941528L729.256470,234.949707L727.495728,237.138916L726.987305,237.509949L724.838867,239.425537L723.097046,241.327087L722.380249,241.800354L720.124512,243.420593L719.822388,243.576233L717.502808,244.967346L717.295776,245.061768L714.894653,246.307251L714.609009,246.422729L712.115479,247.502991L711.087891,247.793701L708.318970,248.424866L707.695679,248.514709L704.819092,248.837341L704.283691,248.865967L701.695312,248.904480L700.909424,248.866638L696.723389,248.411255L694.442993,247.726013L691.640869,246.229858L690.956543,245.822632L688.596802,244.178223L687.195679,242.881104L684.926636,239.989685L683.399536,238.542053L682.471069,237.420593L680.602783,234.467590L679.947266,233.144714L678.269409,228.178833L676.487305,223.772156L676.285400,223.218506L674.874512,218.136841L674.195557,216.207947L674.037598,215.711548L673.282104,212.692993L673.241699,212.535461L671.974731,206.774048L671.823242,205.756531L671.619629,201.377319L670.994507,195.354858L670.960205,194.984619L670.817871,192.230896L670.808228,191.903564L670.974609,176.218567L670.974854,176.158997L671.187866,167.222290L671.192017,167.060913L671.499878,164.171997L671.527710,163.810547L671.876221,160.700378L671.976562,160.118713L673.142090,157.454285L673.529053,153.876343L673.611816,153.285583L675.541260,149.974915L676.475952,147.731812L677.410034,145.992737L677.463623,145.645203L677.592651,145.318115L677.790771,145.027710L678.048096,144.788086L678.352051,144.611328L678.687500,144.506042L679.037964,144.477478L679.386108,144.526978L679.714600,144.652161L680.007446,144.846863L680.250000,145.101440L680.430298,145.403259L680.354736,147.177979L680.408203,147.341431L680.424438,147.512756L680.402588,147.683472L679.680176,149.144470L680.020386,151.468079L680.020386,151.468079L680.022827,151.480164L680.022949,151.492432L680.020508,151.504456L680.015869,151.515808L680.009033,151.526062L680.000366,151.534790L679.990112,151.541626L679.978882,151.546387L679.966797,151.548767L679.954590,151.548828L679.942505,151.546509L679.931152,151.541870L679.920898,151.535034L679.912109,151.526428L679.905273,151.516235L679.900513,151.504822L678.854126,149.303162z" />
				<path fill-opacity="1" fill="#000000" stroke="none" d="M809.342651,148.702942L808.957397,146.407104L808.195312,143.733276L806.857300,141.758362L805.041504,140.410889L803.313599,139.735474L798.294189,136.928223L796.683472,137.071899L796.145996,136.910706L793.392578,136.037048L791.636353,136.289917L790.125732,136.840637L786.917480,137.718323L783.830200,138.826050L781.286743,140.483215L779.309448,142.517944L778.824951,142.935059L776.379639,144.703003L774.115479,148.271362L773.899902,148.554993L771.942139,150.933533L769.671509,155.125916L768.606812,157.439514L766.470459,163.691589L765.576050,166.966553L765.261963,169.888794L765.127563,170.508545L764.169922,174.114685L763.379761,177.572449L763.266357,180.416077L763.178955,183.969055L763.238037,191.823608L763.317505,195.483826L763.558472,198.876648L764.345947,201.483398L765.354370,204.625671L766.409302,207.078369L766.479736,207.272217L767.734009,210.676025L769.044312,213.655334L772.582642,218.318604L777.084839,223.361511L777.251587,223.559875L779.631958,226.529297L781.075684,227.542969L781.527954,227.943909L783.893921,230.352356L786.070679,232.288330L788.310913,233.606384L789.056396,234.099487L791.835938,236.396606L793.268311,236.791626L796.171631,237.737671L801.112061,239.273010L803.828979,240.121277L805.443481,240.230347L807.908325,240.051697L810.037109,239.800415L814.733154,238.975159L819.875122,238.569336L822.065796,237.837646L824.029175,237.090942L825.822876,235.804382L829.469360,232.927734L831.306885,231.412537L833.004883,229.465393L833.098145,229.345276L835.194946,227.305786L838.500488,222.837036L840.214722,220.186829L841.931763,216.275818L841.931763,216.275818L841.934448,216.270447L841.937988,216.265686L841.942627,216.261658L841.947754,216.258667L841.953369,216.256714L841.959351,216.255920L841.965454,216.256226L841.971069,216.257812L841.976562,216.260437L841.981323,216.264099L841.985352,216.268555L841.988403,216.273743L841.990234,216.279419L841.991089,216.285339L841.990723,216.291382L841.989258,216.297180L840.728638,220.393738L840.716919,220.421021L839.612671,223.413757L839.594727,223.447144L837.307617,228.661438L837.172607,228.851868L835.443481,231.261536L834.170532,233.568054L834.010620,233.765259L832.487671,235.846008L832.386841,235.946716L829.120361,239.526917L828.919800,239.695374L826.856445,241.337830L826.607666,241.503479L824.696533,243.045898L824.377808,243.206848L821.920654,244.515564L821.471924,244.669861L816.722412,246.853149L816.585449,246.886475L811.768433,248.204834L811.615845,248.236267L809.167969,248.858093L808.789673,248.912231L805.946045,249.278931L805.550903,249.300903L802.886475,249.578430L801.830688,249.473145L798.839600,249.104614L798.676147,249.066833L793.298096,248.044434L793.008301,247.963623L789.789429,247.024536L789.505981,246.928162L786.495972,245.952881L785.010986,245.123108L782.111938,242.978882L779.502197,241.824829L778.562744,241.177795L775.943481,239.084717L775.618286,238.788574L773.164795,236.469299L771.203125,234.982483L770.274170,234.056274L767.884033,231.094666L763.405151,225.916565L762.981323,225.373291L758.848267,219.176270L758.247314,218.066345L756.962769,214.718994L756.846313,214.408997L755.748047,210.951782L754.772583,208.183777L754.621948,207.735901L753.704956,204.261658L753.630859,203.977600L752.873291,200.348816L752.737793,199.365295L752.655762,195.724121L752.650269,195.483154L752.729736,191.758789L752.730103,191.694519L752.981323,183.666260L752.986694,183.488953L753.238892,179.736023L753.252930,179.529175L753.648193,175.926331L753.778931,175.153625L754.758057,171.578491L754.799683,171.424072L755.901123,167.859070L756.366699,164.925842L756.510986,164.274170L757.621826,160.767517L757.710815,160.498108L760.236328,153.893799L760.417603,153.465759L761.700928,150.916748L761.844482,150.644897L764.629272,145.878174L765.059448,145.255859L767.022339,142.881531L770.002441,138.518494L771.002197,137.487732L773.395142,135.649658L775.588989,133.331726L776.368652,132.710632L779.716797,130.520203L780.586426,130.089539L784.002441,128.766113L784.366821,128.647400L787.747192,127.668396L787.934326,127.619873L790.703979,126.981506L791.953979,126.856323L795.156494,127.040466L796.607910,127.325012L799.268677,128.449524L801.749512,129.191589L803.245483,129.859741L807.717529,133.697632L807.833252,133.781921L809.718384,135.702393L810.346924,136.326660L811.771606,138.996033L812.172119,139.708618L812.655884,142.457947L812.810547,143.260254L812.121460,146.394775L812.121216,146.449585L811.630127,148.940002L811.562988,149.302246L809.713745,151.541504L809.713745,151.541504L809.699951,151.570374L809.680908,151.596008L809.657349,151.617432L809.629883,151.633789L809.599854,151.644531L809.568237,151.649170L809.536377,151.647522L809.505371,151.639771L809.476562,151.626099L809.450928,151.606995L809.429443,151.583313L809.413208,151.555908L809.402466,151.525818L809.397827,151.494263L809.399414,151.462341L809.407227,151.431396L809.343262,148.730164z" />
				<path fill-opacity="1" fill="#000000" stroke="none" d="M854.539795,80.142029L853.793579,78.043091L853.774170,77.938049L853.182983,73.955017L851.974487,70.788330L850.631958,67.928589L850.610962,67.862183L849.239258,64.547363L849.186890,64.305298L848.281616,61.210815L846.992920,58.632874L846.892578,58.148132L845.609497,54.826416L844.734131,53.320129L844.571899,52.450195L844.605225,51.565796L844.832520,50.710510L845.242554,49.926208L845.815308,49.251526L846.522583,48.719543L847.329712,48.356445L848.196899,48.179993L849.081665,48.198914L849.940552,48.412170L850.731445,48.809387L851.415405,49.371094L852.937866,50.161255L853.742920,51.292908L854.723999,52.987976L855.020142,53.733643L856.804810,57.925110L856.918945,58.379578L857.818970,60.973083L857.908325,61.585327L858.551270,65.442688L859.473511,68.190430L859.589233,68.918274L860.148926,72.555420L861.022339,75.533020L861.150391,76.377319L861.647095,80.662354L862.623413,83.969971L862.758789,84.983948L863.303345,92.911255L864.262451,100.335938L864.304321,100.903503L864.474243,105.592529L864.688599,108.701294L865.572388,116.093323L865.616577,116.770630L865.828979,127.601074L865.830078,127.720886L865.946045,169.271118L865.935669,169.658691L865.777466,172.684875L865.742676,173.103271L864.981812,179.912598L864.815796,187.277283L864.763184,199.096191L864.755615,199.390808L864.603394,202.877502L864.430420,204.150391L863.769287,207.106323L863.801270,209.294128L863.700928,216.932495L863.798462,236.268127L863.784424,236.708496L863.570312,239.467102L863.281616,241.106567L862.634155,242.640198L861.660645,243.990479L860.409912,245.089233L858.945557,245.880920L857.341431,246.325623L855.678345,246.400818L854.040527,246.102722L852.510742,245.446411L851.166016,244.465088L850.375854,243.634338L848.627930,241.193359L847.708130,238.919128L847.439087,238.210449L846.536743,235.173584L846.276611,234.072327L845.844482,230.877747L845.217773,229.368774L845.043213,228.813171L844.178711,225.419617L844.008179,224.590332L843.578369,221.274597L842.958252,219.145020L842.727173,217.922302L842.408569,213.740723L841.768799,211.971802L841.485107,210.295349L841.295288,204.274231L841.289307,204.042480L841.309814,200.812317L841.314819,200.497314L841.495972,197.035217L841.609985,196.040344L842.333740,192.520996L842.601685,189.621155L842.736938,188.751526L843.593140,185.175537L843.885010,182.351624L844.094849,181.251038L846.363403,173.680481L846.507935,173.232605L847.504517,170.587402L847.607422,170.323914L850.095215,164.580566L851.256226,161.502258L851.316895,161.341125L852.732666,157.889832L853.022339,157.261047L854.954590,153.733276L856.291260,150.656494L856.626221,149.988342L858.657593,146.574768L859.874268,144.074402L861.304321,140.844910L861.609009,140.245850L863.539307,136.929260L864.967285,134.226074L865.126343,133.947571L868.643921,128.024475L868.969482,127.542847L870.961670,124.797974L871.903442,122.569397L872.566895,121.523682L874.550293,118.896423L875.649902,116.901001L876.168823,116.180115L878.146484,113.688416L879.216309,111.820740L879.875732,110.972168L884.429932,105.755493L884.594482,105.583191L888.337280,101.637024L888.542969,101.437927L890.542603,99.462708L891.274414,98.872864L893.516846,97.198364L895.557983,95.406433L896.762207,94.620972L899.771606,92.979797L901.109375,91.648926L902.007812,91.040955L907.076416,88.014404L909.924194,86.200134L910.410156,85.923828L915.665161,83.174194L916.033447,82.996033L919.151611,81.609497L920.449341,80.500549L921.445801,79.888611L924.153687,78.556091L924.592529,78.351318L927.724976,77.065430L930.039307,76.002869L939.898438,71.412292L942.348755,70.267395L945.208618,68.813477L945.573486,68.607178L948.376221,67.696777L948.737671,67.522705L951.998535,67.306274L953.622314,66.903748L957.027710,68.931519L957.648071,68.961609L958.243774,69.137207L958.781128,69.448608L959.229980,69.877991L959.564697,70.401123L959.766357,70.988464L959.823853,71.606873L957.467773,73.494629L957.467773,73.494629L957.460205,73.554443L957.441284,73.611572L957.411499,73.663940L957.371948,73.709534L957.324341,73.746460L957.270508,73.773499L957.212402,73.789429L957.152344,73.793762L957.092529,73.786316L957.035278,73.767212L956.983032,73.737488L956.937500,73.698059L956.900391,73.650452L956.873413,73.596558L956.857544,73.538513L956.853149,73.478333L954.600342,71.468384L954.310303,76.630676L953.575317,78.490479L951.592163,80.101318L949.016479,81.987183L948.668091,82.185425L946.171387,83.666992L945.994629,83.757446L936.285278,88.830505L936.213867,88.865173L933.653564,90.150391L933.363770,90.281860L930.267944,91.653259L928.034180,92.850708L926.454224,94.157776L925.141724,94.921692L922.035889,96.335815L917.130615,98.872498L914.504395,100.486145L914.276978,100.621582L909.094971,103.449585L907.399292,104.804504L906.236694,105.554504L903.150879,107.047058L901.806396,108.211914L901.411621,108.509033L899.066650,110.036621L897.677856,111.291382L893.973389,114.872681L889.310791,119.665527L888.326294,121.201660L887.882202,121.803162L885.787598,124.197327L884.681274,125.973450L884.277954,126.550720L882.191040,129.096375L881.238770,131.147400L880.669922,132.068237L878.596436,134.752380L875.284424,140.121033L873.887695,142.712341L873.786499,142.893372L871.856323,146.210022L870.670166,149.044250L870.581909,149.235901L869.198608,152.171143L868.980713,152.581421L867.016724,156.034180L865.877075,158.948364L865.653198,159.417297L863.811401,162.993225L862.784424,165.854797L861.674805,169.082031L861.567993,169.356934L859.244995,175.169006L858.407959,177.571411L856.525024,184.762085L856.418457,187.265869L856.292969,188.036133L855.533447,191.633789L855.404663,194.340759L855.311646,195.009094L854.682495,198.546631L854.708618,201.017517L854.786865,203.931824L855.103638,209.715515L855.773438,211.104309L856.032349,212.416931L856.524658,216.581665L857.200073,218.377136L857.394653,219.291809L857.914795,222.594604L858.701294,225.134033L859.590942,227.378784L859.928711,228.705994L860.478882,231.882324L861.252930,233.775635L862.042236,235.280090L861.188721,233.556274L848.911377,235.790222L849.092407,216.829468L849.094116,216.697144L849.311646,208.811829L849.317871,208.628662L849.494629,205.166931L849.667969,203.891357L850.353271,200.940918L850.348999,198.727905L850.410034,187.127869L850.412476,186.976318L850.623413,178.919128L850.666260,178.302307L851.436890,171.494080L851.569092,168.886780L851.656006,127.783997L851.504028,117.352295L850.693237,109.934204L850.661743,109.578125L850.471558,106.261475L850.461670,106.055725L850.321655,101.365601L849.590942,94.289551L849.557373,93.898621L849.178101,85.765076L848.652832,82.575012L848.534302,81.770081L848.305298,77.462463L847.768799,74.513672L847.651001,73.770142L847.499878,70.093384L847.078735,67.217651L846.963501,66.472717L846.916016,62.562500L846.819458,60.435974L846.113037,56.409485L845.638306,55.354797L845.693726,54.943665L852.736206,53.345642L852.870605,53.992920L852.345337,57.271973L852.680298,60.055847L852.753906,60.385620L852.779053,63.654724L853.340820,67.037903L854.030396,70.113403L854.046753,70.165588L854.729736,73.593567L854.757812,73.748230L854.816772,77.799866L855.317139,79.962830L855.332520,80.053345L855.344116,84.276611L855.344116,84.276611L855.342651,84.312744L855.333984,84.347778L855.318726,84.380371L855.297241,84.409485L855.270752,84.433838L855.239746,84.452515L855.206055,84.464783L855.170166,84.470276L855.134277,84.468689L855.099243,84.460022L855.066528,84.444824L855.037476,84.423340L855.013184,84.396790L854.994507,84.365967L854.982178,84.332031L854.976685,84.296326L854.544189,80.183594z" />
				<path fill-opacity="1" fill="#000000" stroke="none" d="M860.559326,150.533875L858.704590,150.403564L862.176392,148.781433L864.560547,149.726257L864.696899,149.840027L867.376465,151.380676L869.531128,152.010132L869.687134,152.111267L872.176270,153.233704L873.027954,153.982361L875.061157,155.646118L876.623779,156.111755L877.263550,156.633728L879.781860,158.568115L882.354980,160.428345L885.093994,162.001221L887.609985,163.343018L888.175415,163.763062L891.014038,165.815674L897.326538,169.862427L897.761719,170.196777L900.692871,172.489319L903.678711,174.452942L910.676147,179.085266L914.032959,181.141113L916.902954,182.440002L917.631104,182.841309L921.224854,185.064819L921.370361,185.158203L924.819702,187.408508L925.213989,187.686279L928.147705,189.881653L930.398804,190.842773L931.079346,191.224854L937.952515,195.550354L940.620483,197.096985L941.037109,197.358521L944.314087,199.562622L944.655396,199.806396L947.443481,201.914551L949.604248,202.913452L950.837524,203.714478L953.606445,205.919067L958.828003,209.282166L959.452393,209.733643L961.977539,211.841614L963.704102,212.973083L963.917236,213.107483L966.896362,215.319702L971.304443,218.626526L971.932983,219.037109L974.262695,221.319641L976.030640,222.507751L976.258301,222.615967L983.075073,227.867981L985.335693,229.497498L988.039307,231.077881L988.153931,231.125366L990.616211,232.738281L993.777466,234.779846L997.346069,236.779358L1001.570679,237.774048L1001.570679,237.774048L1001.592285,237.778137L1001.612915,237.786499L1001.631470,237.798706L1001.647217,237.814148L1001.659668,237.832458L1001.668213,237.852905L1001.672729,237.874512L1001.672852,237.896667L1001.668701,237.918396L1001.660400,237.938904L1001.648315,237.957458L1001.632690,237.973206L1001.614380,237.985596L1001.594116,237.994263L1001.572388,237.998779L1001.550171,237.998901L997.137207,238.210205L996.983521,238.179199L992.815186,237.717407L992.764893,237.700378L988.918335,237.244324L988.757935,237.180542L985.882568,236.447205L982.665894,235.730957L982.457642,235.641724L979.657227,234.902344L979.557251,234.853760L971.278809,232.504272L968.206421,231.684875L967.084351,231.029297L964.219116,229.471130L959.395264,227.546265L959.034912,227.325256L955.816162,225.479004L953.353516,224.147461L952.545166,223.580994L949.942749,221.569153L944.725708,218.252502L944.124146,217.819275L941.356934,215.612793L939.347046,214.726990L938.262939,214.041931L935.477173,211.930420L932.544556,209.965515L930.069458,208.535828L929.842041,208.397705L922.981079,204.052917L920.224609,202.721802L919.030884,201.985229L916.111084,199.771484L913.073120,197.773376L909.646362,195.608765L906.795532,194.258179L906.062622,193.853943L902.506348,191.581970L902.268677,191.426514L895.312256,186.553528L895.228638,186.495728L891.867798,184.035583L891.396973,183.675720L888.606567,181.213684L882.701416,176.648254L882.291626,176.333801L879.749146,173.923828L877.898926,172.420593L877.703369,172.285461L874.822021,169.857910L874.341675,169.474121L872.027832,167.010254L871.875977,166.870789L869.820801,164.449951L868.433350,163.111206L867.546387,162.323547L866.133179,160.108765L865.028564,158.952759L863.101318,157.131104L862.603149,156.760803L860.754272,154.283752L859.031372,152.063965L858.708618,151.754639L858.092285,149.964355L857.894531,149.674072L857.765625,149.347351L857.711670,149.000305L857.735352,148.649902L857.835693,148.313354L858.007568,148.007019L858.242676,147.746033L858.529297,147.543213L858.853516,147.408386L859.199585,147.348267L859.550415,147.365723L859.888794,147.459900L861.354614,148.665527L861.428589,148.698730L869.603394,153.800293L869.603394,153.800293L869.619385,153.810364L869.633179,153.823303L869.644043,153.838684L869.651733,153.855957L869.656006,153.874329L869.656494,153.893188L869.653320,153.911804L869.646606,153.929443L869.636597,153.945435L869.623657,153.959167L869.608276,153.970032L869.591064,153.977783L869.572632,153.981995L869.553711,153.982544L869.535156,153.979370L869.517578,153.972656L860.648804,150.568237z" />
				<path fill-opacity="1" fill="#000000" stroke="none" d="M362.081726,372.181091L362.073303,372.144043L361.791504,369.813477L360.872131,367.262207L360.857178,367.164856L360.687256,364.134277L360.716858,363.963745L361.177856,362.008911L361.246094,361.869690L361.342407,361.748169L361.462219,361.649719L361.600220,361.579041L361.750122,361.539307L361.905029,361.532227L362.057861,361.558167L362.201782,361.615967L362.330139,361.703003L362.437012,361.815308L363.436707,362.679504L363.570190,362.913696L363.635864,363.175110L364.386963,365.764099L364.394836,365.872925L364.668945,369.919739L364.667786,370.057617L364.658264,372.652283L364.647156,372.777222L364.176147,378.563660L364.122986,385.625427L364.027893,386.171997L363.421265,388.409058L362.422058,393.410645L362.184509,396.389893L362.097595,396.823120L361.465942,399.371582L361.222229,402.510071L361.123962,402.999756L359.522705,409.140625L359.170227,412.987122L359.069397,413.487915L354.061707,432.748108L351.384399,443.414001L351.290344,443.714539L350.383789,446.429749L350.329407,446.572510L348.270935,451.807922L347.493652,454.203247L346.225891,458.945129L346.177307,459.106995L345.425354,461.502747L345.332031,461.760742L343.457397,466.537781L342.738098,468.789978L341.515320,473.423950L341.462402,473.601501L340.717712,475.978333L340.635193,476.210388L338.761658,481.117004L337.268555,486.318298L337.158997,486.641357L335.318054,491.523621L333.672913,496.708984L333.633728,496.823914L331.797668,502.085083L330.203003,507.113831L330.062317,507.487488L323.550476,522.908997L321.912964,527.713074L321.813843,527.971924L320.764343,530.511536L320.744141,530.559021L317.336304,538.557129L317.292664,538.654846L316.086609,541.301331L316.031067,541.417664L308.884949,556.022522L308.873657,556.045166L295.696045,582.642883L295.554871,582.903625L291.067139,590.703674L290.889893,590.985535L287.279297,596.381470L285.854492,598.680542L282.746033,604.120056L282.620300,604.325806L278.053955,611.457092L273.167725,619.576965L272.793152,620.114929L270.625732,622.816772L266.395691,629.061951L264.826172,631.673035L264.653259,631.942444L262.404602,635.170715L262.077087,635.594666L257.577393,640.724976L256.070801,642.724426L255.170044,643.646301L252.919678,645.366760L250.950195,647.177429L250.506836,647.541199L248.288269,649.115051L247.414368,650.340637L246.317505,651.298889L238.546143,656.087036L238.409485,656.169922L232.290466,659.614441L231.559326,659.957092L228.110352,661.128052L227.449219,661.311707L224.042114,661.879822L221.579834,662.553406L220.613892,662.738403L217.183289,662.805420L216.879150,662.815735L213.581238,662.571228L212.322510,662.350891L209.731140,661.148743L208.588440,660.476624L206.691284,658.472351L206.203979,657.938171L205.845825,657.309998L205.634277,656.618469L205.579773,655.897461L205.855896,653.789429L206.005798,652.943604L206.868042,650.711792L207.401550,649.745056L209.241333,647.595825L209.754333,647.111877L211.819031,645.547424L212.031921,645.404724L214.257874,643.927307L214.390686,643.850891L216.668335,642.453552L216.761597,642.405029L221.753174,639.466736L222.255676,639.261414L227.316650,637.350281L227.623108,637.265259L230.696472,636.206848L231.289124,636.112732L235.476624,635.622498L237.371216,635.010986L237.922974,634.914978L240.874451,634.465942L241.121155,634.445801L244.473022,634.009827L244.676208,634.003113L252.023254,633.731628L252.078613,633.731262L258.616821,633.486755L258.862610,633.492371L262.207947,633.519714L263.178040,633.654602L266.076477,634.200989L272.294434,634.172913L273.167419,634.295410L276.928223,635.049072L278.879333,635.140137L279.227478,635.185242L285.033691,635.968323L291.304138,636.182678L292.111328,636.284363L295.837830,636.945984L299.646729,637.102966L300.583984,637.246277L304.539062,638.131409L306.424927,638.244446L306.809326,638.294983L312.688477,639.186218L315.646057,639.404968L316.384888,639.515930L320.031006,640.234802L323.230774,640.259216L323.438599,640.272522L327.196228,640.520813L327.892212,640.613403L331.999817,641.286194L335.650391,641.345398L335.935486,641.364014L338.627502,641.565735L338.980347,641.605530L344.985718,642.353821L347.879944,642.391052L356.370300,642.430054L414.216797,642.264954L417.646423,642.129578L420.309998,641.605042L421.340027,641.491882L433.656921,641.328369L435.732727,641.016479L436.254883,640.948425L443.232727,640.882385L445.544678,640.615662L446.051086,640.542664L452.813904,640.883484L454.759949,640.733276L454.993713,640.670227L468.133057,638.841370L470.483215,638.666260L474.169373,637.842041L474.335571,637.766663L478.417480,637.192688L481.900635,636.159973L481.900635,636.159973L481.926514,636.150757L481.953613,636.146729L481.980957,636.148071L482.007568,636.154724L482.032349,636.166443L482.054443,636.182800L482.072876,636.203064L482.086914,636.226624L482.096191,636.252441L482.100220,636.279541L482.098877,636.306946L482.092163,636.333557L482.080566,636.358337L482.064209,636.380371L482.043823,636.398743L482.020386,636.412903L478.990723,638.462891L478.944336,638.482849L475.602783,640.784668L472.707825,643.396912L472.307678,643.565186L469.864441,644.961426L469.624878,645.029175L457.095764,649.388855L454.743652,650.624573L453.815308,650.808533L447.256897,652.493469L444.939026,653.147583L444.355408,653.228821L437.480103,654.422424L435.062256,654.956116L434.164551,655.048767L421.869324,655.795837L419.250793,656.390442L418.252930,656.502686L414.519104,656.676086L414.213501,656.682495L356.321838,656.490906L356.231384,656.490234L347.514343,656.306335L347.331055,656.301514L343.760437,656.117371L343.080566,656.056824L337.098816,655.138611L334.765015,654.915527L330.457642,654.696106L329.512695,654.587463L325.439453,653.730530L322.385925,653.472717L318.367920,653.234924L317.337463,653.103088L313.709045,652.299377L311.053101,652.059326L310.608765,652.002869L304.749451,650.989380L302.460815,650.743591L301.668335,650.613098L297.723999,649.681335L294.161987,649.378479L293.456604,649.283386L289.751526,648.510681L283.708069,648.069397L283.112061,648.004089L277.350647,646.940247L275.086426,646.661316L274.412720,646.554504L270.680542,645.669861L264.480530,644.992493L263.581177,644.859436L260.741333,644.062378L258.377991,643.914062L252.112976,643.683777L244.789246,643.585449L241.612915,643.508057L238.880859,643.686523L236.851257,644.104431L236.212708,644.207825L232.002808,644.437561L229.371033,644.754822L224.712708,645.992310L219.611267,648.102356L217.290527,649.199890L215.089600,650.423889L213.194702,651.787109L211.934021,653.507263L211.846191,654.851013L212.123596,656.127441L213.244507,655.174988L214.868958,655.212097L216.909851,654.772522L220.010620,654.357849L221.903931,653.503113L222.378479,653.382019L225.748291,652.623413L228.483643,651.491028L233.694214,648.243835L241.296143,643.336731L241.885010,642.242920L242.736389,641.449585L244.923706,639.832458L246.720520,638.082336L247.028870,637.819885L249.244202,636.054565L250.025696,634.667358L250.246887,634.391602L254.669617,629.194763L256.555908,626.366516L258.070801,623.772034L258.219788,623.537537L262.644836,616.945251L262.880066,616.625488L265.038025,613.916138L269.596619,606.273071L269.677734,606.143005L274.270508,599.081116L277.456116,593.626709L277.544922,593.479126L279.082275,591.039856L279.179810,590.890320L282.762268,585.676514L287.170593,578.194519L300.567322,551.887024L307.853149,537.365540L309.025818,534.845520L312.477661,526.983093L313.531921,524.501526L315.185120,519.828613L315.299805,519.533569L321.996765,504.236816L323.620117,499.363464L323.659424,499.248230L325.565796,494.012024L327.297913,488.799377L327.373840,488.585449L329.263000,483.783081L330.828857,478.595764L330.943665,478.259521L332.950684,473.214050L333.652771,471.082214L334.955566,466.441895L335.016968,466.238342L335.852600,463.760437L335.938721,463.524719L337.881714,458.775085L338.581787,456.650574L339.937500,451.896179L339.997253,451.700439L340.884705,449.086243L340.968567,448.858704L343.123169,443.662170L344.095337,441.132751L347.030640,430.827209L347.048584,430.762695L352.992554,412.004089L353.540344,408.179565L353.643005,407.677246L355.627502,401.642395L356.070251,398.540527L356.161804,398.079224L356.995483,395.574463L357.427490,392.687317L357.480103,392.387878L358.898987,387.256714L358.936218,387.119446L359.617126,385.122803L360.250793,378.295044L360.263794,378.146973L361.240540,372.412476L361.492371,369.962219L361.486145,366.029724L361.690369,363.669067L361.284058,362.699341L361.670227,364.217041L361.531006,367.111511L362.197205,369.710999L362.205505,369.752869L362.365295,372.097229L363.161865,374.685974L363.161865,374.685974L363.161926,374.686279L363.161987,374.686523L363.161926,374.686829L363.161804,374.687134L363.161682,374.687378L363.161499,374.687561L363.161255,374.687683L363.161011,374.687805L363.160767,374.687866L363.160461,374.687988L363.160156,374.687866L363.159851,374.687805L363.159607,374.687622L363.159424,374.687500L363.159241,374.687256L363.159119,374.686951L362.092468,372.206177z" />
				<path fill-opacity="1" fill="#000000" stroke="none" d="M580.987549,379.505676L581.277344,379.753235L581.503784,380.059814L583.313721,381.331543L583.375854,381.446045L585.104004,383.591797L585.419556,384.588135L586.077026,386.989197L586.966675,389.326782L586.996582,389.490112L587.860352,392.391663L587.910767,392.893921L589.259644,404.119873L590.065308,406.934998L590.155518,407.710938L591.102295,419.362122L591.817383,422.517334L591.904175,423.347595L592.443359,433.035706L592.662109,435.910034L593.574829,442.387695L593.612183,442.825806L594.010864,449.673767L594.935547,456.855530L594.973755,457.378357L595.153076,462.020935L595.394653,465.001953L596.109375,470.896606L596.143921,471.309143L596.750000,481.003601L597.441162,486.578796L597.478271,487.021545L598.025146,496.567444L598.907837,503.773743L598.950928,504.394470L599.145264,511.479065L599.325317,513.979736L600.013428,519.179138L600.052734,519.583191L600.275391,522.625366L600.290283,522.999817L600.461914,533.225769L600.625366,535.656067L601.293335,540.799133L601.338867,541.316833L601.816040,550.585876L602.650757,557.732361L602.676147,557.991272L602.904785,560.900146L603.752441,567.244202L603.810303,567.926453L603.963379,572.456909L604.152832,575.176697L604.999634,581.763550L605.032837,582.082092L605.265137,584.967346L605.660522,587.662781L606.241577,590.770813L607.085205,594.111694L607.255005,595.093994L607.541626,597.992554L607.992065,600.705139L608.575073,603.700134L609.343506,606.855286L609.490723,607.670959L609.898193,611.198181L611.568115,617.412659L611.728027,618.206116L612.183350,621.650330L613.986816,626.987915L616.366699,634.195740L617.209717,635.502014L617.686646,636.338318L618.793457,639.583557L619.538086,641.347839L620.423340,643.494934L622.503906,646.164368L622.503906,646.164368L622.681030,646.210144L622.845947,646.289490L622.992065,646.399536L623.113892,646.535950L623.206909,646.693542L623.267212,646.866150L623.292847,647.047302L623.282471,647.229919L623.236816,647.407043L623.157471,647.571838L623.047363,647.718079L622.911011,647.839905L622.753418,647.932800L622.580811,647.993225L622.399658,648.018738L622.217041,648.008484L617.849731,650.024597L617.083984,649.816833L616.382324,649.446228L612.915649,648.835632L611.954590,647.985657L609.075562,645.951477L608.185181,644.592712L606.382324,641.676147L604.916382,640.051331L604.194824,638.640198L601.336426,631.501648L601.271240,631.314636L599.000854,624.737244L598.720459,623.539795L598.210205,620.103210L596.446533,613.760681L596.267090,612.819519L595.835815,609.295105L595.131226,606.647339L595.062866,606.335449L594.431885,603.124146L594.392944,602.905945L593.883911,599.772461L593.828979,599.351013L593.541382,596.452576L592.779663,593.684570L592.691040,593.275330L592.064697,589.883362L592.018311,589.599548L591.577026,586.491028L591.531006,586.078003L591.296631,583.192993L590.430054,576.529602L590.390747,576.132629L590.182007,573.176819L590.169678,572.940186L590.005249,568.410095L589.136719,562.374207L589.096069,561.995056L588.863403,559.086487L588.021484,551.970276L587.983032,551.510315L587.519775,542.009216L586.867432,536.934631L586.825806,536.487122L586.669189,533.728333L586.657104,533.400940L586.569336,523.173889L586.396606,520.503845L585.732544,515.283936L585.692139,514.862549L585.524414,512.080017L585.511963,511.799927L585.380005,505.025513L584.604492,497.900696L584.568359,497.465759L584.139404,487.695435L583.491333,482.126221L583.454712,481.694397L583.052734,471.989380L582.392822,466.176208L582.363403,465.851013L582.198730,462.652222L582.188477,462.440125L582.067627,457.795593L581.367310,450.912537L581.334351,450.510925L581.047119,443.675842L580.365723,437.017944L580.332275,436.648010L580.195190,433.608582L580.187744,433.448914L580.072876,423.746582L579.567871,420.623779L579.484497,419.862427L579.426147,408.172974L579.030762,405.299988L578.943604,404.543823L579.366943,393.245056L579.329346,390.721191L579.209717,388.179382L579.173462,387.970703L579.135742,385.481628L578.726685,383.819702L578.793457,382.067322L577.899658,379.576782L577.899658,379.576782L577.883301,379.563171L577.869751,379.546631L577.859741,379.527771L577.853638,379.507324L577.851562,379.486084L577.853882,379.464844L577.860107,379.444397L577.870239,379.425659L577.883789,379.409241L577.900391,379.395752L577.919189,379.385742L577.939575,379.379639L577.960938,379.377686L577.982056,379.379822L578.002563,379.386108L578.021240,379.396240L580.957886,379.504578z" />
			</g>
		</g>
	</g>
</svg>
